<svg xmlns="http://www.w3.org/2000/svg" height="32" width="32" viewBox="0 0 32 32"><path fill="#FF5656" d="M26.847 0l-4.83 12.584c-.37.96-.773.812-1.306-.44-1.004-2.078-2.684-3.57-5.04-4.475-1.834-.704-3.698-.89-5.594-.56-1.884.298-3.578 1.057-5.08 2.277C3.53 10.587 2.44 12.127 1.72 14c-.742 1.935-1 3.828-.775 5.677.225 1.85.91 3.502 2.05 4.962 1.184 1.44 2.78 2.546 4.786 3.317 1.05.402 2.196.63 3.443.686 1.288.036 2.542-.098 3.76-.406l-.655-3.9c-1.85.56-3.532.55-5.045-.032-1.134-.436-2.052-1.09-2.753-1.958-.66-.888-1.07-1.907-1.228-3.06l14.078.167-4.185 10.9L19.48 32 31.134 1.645zM14.054 10.96c1.193.46 2.06 1.162 2.597 2.11.568.957.87 2.04.905 3.253l-12.093.064c.065-.257.187-.616.364-1.077.73-1.904 1.87-3.265 3.42-4.08 1.547-.816 3.15-.906 4.808-.27z"/></svg>